<?xml version="1.0" standalone="no"?>
<!DOCTYPE svg PUBLIC "-//W3C//DTD SVG 20010904//EN"
 "http://www.w3.org/TR/2001/REC-SVG-20010904/DTD/svg10.dtd">
<svg version="1.0" xmlns="http://www.w3.org/2000/svg"
 width="1200.000000pt" height="1200.000000pt" viewBox="0 0 1200.000000 1200.000000"
 preserveAspectRatio="xMidYMid meet">
<metadata>
Created by potrace 1.11, written by Peter Selinger 2001-2013
</metadata>
<g transform="translate(0.000000,1200.000000) scale(0.100000,-0.100000)"
fill="#000000" stroke="none">
<path d="M5575 11700 c-1062 -86 -2043 -439 -2880 -1035 -285 -203 -477 -366
-735 -625 -433 -432 -752 -865 -1019 -1381 -349 -677 -540 -1310 -627 -2079
-21 -195 -30 -753 -15 -976 22 -317 58 -569 122 -859 230 -1037 798 -2057
1560 -2800 89 -87 81 -77 -37 45 -404 418 -717 852 -975 1355 -166 322 -292
633 -309 760 -14 108 -30 352 -30 469 l0 105 35 -6 c20 -3 35 -1 35 4 0 6 19
7 53 2 210 -34 555 -29 784 9 l102 18 22 -56 c74 -187 249 -499 392 -699 246
-342 620 -721 994 -1004 69 -53 62 -32 84 -247 42 -429 175 -889 362 -1254 29
-56 53 -104 55 -107 4 -9 -142 -29 -266 -36 -89 -5 -124 -3 -165 10 -28 9
-104 23 -167 31 -98 14 -287 56 -355 81 -51 17 153 -133 340 -252 833 -529
1782 -832 2762 -881 198 -11 227 -8 219 22 -2 11 -8 49 -12 84 -4 35 -13 70
-21 78 -8 7 -13 26 -11 41 3 25 8 28 53 35 551 85 1012 246 1370 479 148 96
227 160 375 304 l125 122 123 7 c435 22 924 123 1284 267 207 82 440 211 599
331 65 49 82 58 94 48 8 -7 15 -19 15 -27 0 -17 98 -133 113 -133 5 0 25 16
44 36 l34 37 -62 63 c-34 35 -66 61 -69 59 -4 -3 -15 4 -24 14 -16 17 -12 27
65 167 287 521 487 1058 569 1529 l23 130 60 65 c297 324 564 773 788 1325 27
66 49 111 49 100 1 -11 17 20 36 70 19 49 37 91 40 94 2 2 29 -3 60 -13 31
-10 59 -15 62 -11 13 13 20 382 11 615 -27 735 -198 1469 -492 2112 -62 135
-55 134 -131 24 -36 -52 -66 -103 -66 -113 0 -10 -13 -34 -28 -54 l-28 -37
-119 75 c-142 88 -425 231 -580 292 -142 56 -375 132 -493 161 l-93 22 -46 67
c-365 522 -548 747 -867 1067 -206 206 -370 346 -531 454 -44 30 -81 55 -83
56 -2 1 4 62 13 135 9 74 19 220 22 326 4 116 10 190 15 187 6 -4 8 39 6 110
-2 84 0 116 9 116 51 0 480 -209 713 -348 320 -190 667 -442 889 -646 25 -23
39 -33 31 -22 -8 10 -60 58 -115 106 -757 656 -1666 1099 -2645 1289 -173 33
-311 54 -510 77 -160 18 -834 27 -1005 14z m1025 -54 c325 -37 597 -86 870
-157 178 -46 478 -144 562 -182 l56 -26 6 -88 c9 -117 15 -153 26 -153 19 0 7
-321 -20 -561 l-12 -106 -112 -7 c-619 -37 -1340 -199 -1844 -414 l-73 -31
-65 39 c-35 22 -114 65 -174 95 -453 227 -980 349 -1612 372 l-178 6 0 136 c0
75 -5 217 -10 315 -6 100 -6 182 -2 185 5 3 4 55 -2 114 l-12 108 31 13 c16 7
58 25 92 40 79 33 349 115 530 160 283 71 603 124 910 151 215 19 831 13 1033
-9z m-2090 -1302 c477 -44 913 -160 1271 -340 81 -40 195 -104 236 -132 29
-19 197 -1158 268 -1812 8 -80 18 -161 21 -181 5 -36 5 -36 -148 -164 -724
-610 -1292 -1141 -1583 -1480 -37 -44 -69 -81 -69 -82 -1 -1 -38 9 -81 23
-530 166 -1257 350 -1760 445 -93 18 -175 37 -182 43 -34 32 -155 512 -208
829 -63 380 -125 995 -125 1249 l0 56 106 139 c539 701 1094 1169 1654 1395
l95 39 170 -6 c94 -3 244 -13 335 -21z m-2745 -1514 c50 -6 141 -20 202 -31
l112 -21 5 -32 c3 -17 8 -92 11 -166 29 -656 135 -1329 285 -1818 l40 -131
-84 -118 c-353 -494 -597 -1067 -686 -1606 -17 -103 -27 -138 -39 -141 -9 -3
-65 -13 -126 -23 -209 -34 -757 -19 -798 22 -7 6 -29 15 -49 19 -33 6 -41 15
-82 84 -84 144 -165 344 -185 459 -26 145 -43 498 -38 758 13 597 100 1111
278 1655 118 358 316 808 430 976 27 39 31 41 126 62 54 12 117 25 141 28 23
4 42 10 42 15 0 4 15 10 33 12 67 8 296 6 382 -3z m8112 -236 c356 -101 717
-266 999 -455 l71 -47 73 -189 c330 -850 490 -1511 490 -2021 l0 -162 -66
-178 c-219 -588 -517 -1114 -811 -1431 l-68 -73 -200 92 c-296 137 -721 324
-971 430 l-221 92 -7 112 c-37 580 -205 1388 -445 2139 -28 87 -51 164 -51
171 0 7 118 190 263 407 275 413 463 707 636 996 99 164 105 172 130 167 14
-4 94 -26 178 -50z m-3362 -834 c637 -140 1348 -372 1964 -643 l123 -54 34
-104 c248 -755 410 -1517 464 -2177 l12 -142 -74 -87 c-460 -543 -995 -1030
-1534 -1396 l-140 -96 -180 34 c-697 129 -1327 321 -1864 569 -80 37 -172 81
-205 99 l-59 32 -33 130 c-55 220 -199 837 -259 1105 -78 356 -214 1035 -214
1070 0 38 484 538 800 825 399 362 986 865 1011 865 8 0 78 -14 154 -30z
m-1314 -4109 c526 -255 1145 -455 1826 -590 136 -27 264 -52 284 -55 23 -4 39
-13 42 -24 108 -373 145 -504 192 -682 53 -204 151 -613 180 -748 l13 -63 -97
-97 c-379 -386 -911 -635 -1616 -757 -177 -31 -207 -31 -385 -10 -434 53 -899
173 -1285 331 -231 95 -695 340 -733 387 -22 27 -114 210 -162 320 -98 229
-173 476 -219 722 -25 134 -61 410 -61 468 l0 42 173 69 c462 184 960 408
1382 622 154 78 285 143 291 143 6 1 85 -35 175 -78z"/>
<path d="M9960 10105 c47 -47 87 -85 90 -85 2 0 -33 38 -80 85 -47 47 -87 85
-90 85 -2 0 33 -38 80 -85z"/>
<path d="M10090 9977 c0 -2 15 -16 33 -33 l32 -29 -29 33 c-28 30 -36 37 -36
29z"/>
</g>
</svg>
